<svg xmlns="http://www.w3.org/2000/svg" width="629" height="634" viewBox="0 0 629 634" version="1.1"><path d="M 298.500 32.674 C 198.048 36.400, 104.722 96.887, 59.073 187.855 C 50.476 204.985, 40.806 231.209, 37.533 246.269 C 36.788 249.696, 35.438 255.875, 34.532 260 C 28.705 286.543, 27.961 324.125, 32.612 357 C 36.934 387.548, 49.704 424.889, 64.846 451.250 C 66.031 453.312, 67.947 456.687, 69.104 458.750 C 73.810 467.138, 89.004 488.374, 96.470 497 C 109.256 511.771, 128.832 530.039, 143.761 541.131 C 174.344 563.855, 216.369 582.635, 252.976 589.938 C 275.338 594.399, 285.773 595.371, 311 595.342 C 332.464 595.317, 337.595 594.987, 352.403 592.672 C 401.847 584.943, 447.980 564.841, 486 534.458 C 498.867 524.175, 524.443 497.930, 534.196 485 C 565.372 443.670, 582.916 400.404, 590.155 347 C 592.942 326.439, 591.669 286.727, 587.495 264 C 576.715 205.306, 547.640 151.198, 505.239 110.924 C 448.861 57.375, 376.004 29.799, 298.500 32.674 M 295 35.591 C 238.955 40.296, 197.544 54.123, 155 82.337 C 124.640 102.471, 96.692 130.625, 75.794 162.127 C 70.597 169.960, 58.230 192.539, 55.323 199.500 C 45.602 222.777, 43.445 228.935, 39.560 244.500 C 29.659 284.165, 28.246 320.862, 35.014 362.500 C 42.083 405.984, 62.477 451.187, 91.637 488 C 100.497 499.185, 126.284 524.843, 137 533.136 C 176.745 563.892, 220.923 582.760, 270.500 590.152 C 290.093 593.073, 328.065 593.328, 345.970 590.658 C 392.238 583.760, 428.189 570.168, 465 545.655 C 525.149 505.602, 568.807 440.560, 582.973 369.896 C 588.400 342.825, 589.870 306.736, 586.595 281 C 577.882 212.529, 546.859 152.896, 495.941 106.739 C 453.705 68.452, 396.756 42.847, 341 37.074 C 330.114 35.947, 301.681 35.030, 295 35.591 M 294.849 42.113 C 247.379 44.655, 200.301 60.228, 161.226 86.315 C 143.444 98.186, 134.324 105.639, 119.427 120.476 C 105.223 134.622, 102.374 137.893, 91.535 152.500 C 44.921 215.318, 28.147 294.996, 44.990 373.590 C 46.996 382.948, 53.167 404.184, 55.426 409.500 C 56.127 411.150, 58.195 416.100, 60.022 420.500 C 73.851 453.811, 93.758 482.806, 121.157 509.545 C 135.481 523.524, 143.277 529.925, 158.500 540.205 C 199.262 567.731, 242.496 582.327, 294.655 586.173 C 351.730 590.381, 415.194 572.768, 463.978 539.182 C 479.457 528.524, 486.415 522.755, 500.839 508.615 C 544.151 466.157, 570.802 413.782, 580.128 352.793 C 582.761 335.571, 583.296 297.759, 581.129 282 C 572.092 216.283, 543.645 159.882, 497.403 116 C 466.977 87.126, 429.110 65.192, 389 53.210 C 366.702 46.549, 349.294 43.432, 329.248 42.511 C 322.237 42.189, 314.925 41.791, 313 41.627 C 311.075 41.462, 302.907 41.681, 294.849 42.113 M 282.500 47.993 C 173.388 59.547, 82.835 135.609, 52.429 241.245 C 47.260 259.207, 44.077 278.215, 42.796 298.784 C 37.992 375.950, 67.786 452.339, 123.629 506.029 C 188.086 567.999, 276.310 593.578, 364.500 575.863 C 445.912 559.509, 517.650 502.284, 552.677 425.752 C 560.571 408.505, 564.932 396.016, 569.420 377.804 C 574.411 357.550, 576.032 345.324, 576.699 322.899 C 577.936 281.272, 571.484 246.136, 555.967 210 C 540.881 174.866, 522.381 148.092, 494.736 121.381 C 454.775 82.769, 405.260 58.342, 349 49.484 C 336.896 47.579, 295.234 46.644, 282.500 47.993 M 311.640 80.774 C 311.057 81.717, 306.006 110.364, 306.002 112.750 C 305.997 115.769, 308.037 113.623, 308.616 110 C 309.187 106.428, 309.558 106, 312.082 106 C 314.523 106, 314.999 106.480, 315.568 109.511 C 316.226 113.017, 317.465 114.715, 318.308 113.266 C 318.959 112.149, 314.053 81.653, 313.064 80.664 C 312.603 80.203, 311.962 80.252, 311.640 80.774 M 287.667 81.667 C 287.300 82.033, 286.993 86.646, 286.985 91.917 C 286.976 97.188, 286.611 102.065, 286.173 102.755 C 285.680 103.530, 284.325 100.282, 282.627 94.255 C 278.932 81.146, 279.080 81.520, 278 82.600 C 276.847 83.753, 285.157 114.219, 286.771 114.757 C 288.249 115.250, 288.786 111.223, 289.439 94.750 C 289.937 82.218, 289.600 79.733, 287.667 81.667 M 334 83 C 334 83.550, 334.873 84, 335.941 84 C 337.009 84, 338.080 84.338, 338.323 84.750 C 338.565 85.162, 337.931 91.575, 336.912 99 C 334.674 115.320, 334.687 115, 336.293 115 C 337.206 115, 338.117 110.808, 339.390 100.750 C 340.382 92.912, 341.401 86.162, 341.656 85.750 C 341.910 85.338, 343.216 85, 344.559 85 C 348.048 85, 347.577 83.365, 343.875 82.625 C 339.150 81.680, 334 81.875, 334 83 M 250.653 88.490 C 248.313 90.830, 247.783 95.288, 249.028 102.154 C 250.411 109.779, 252.365 114.695, 255.222 117.736 C 257.554 120.218, 261.198 120.710, 262.737 118.750 C 266.904 113.444, 262.214 93.065, 255.791 88.566 C 253.027 86.630, 252.520 86.623, 250.653 88.490 M 362.495 102.209 C 358.024 120.392, 358.228 119.149, 359.622 119.666 C 360.329 119.928, 362.136 114.423, 364.505 104.791 C 368.976 86.608, 368.772 87.851, 367.378 87.334 C 366.671 87.072, 364.864 92.577, 362.495 102.209 M 251.667 89.667 C 250.415 90.918, 250.997 101.626, 252.612 107.068 C 255.224 115.873, 259.752 120.694, 261.393 116.418 C 263.258 111.557, 260.011 96.826, 255.930 91.638 C 253.807 88.939, 252.841 88.492, 251.667 89.667 M 311.656 93.750 C 309.644 103.719, 309.615 103.192, 312.152 102.832 C 314.137 102.551, 314.451 102.008, 314.182 99.318 C 314.007 97.569, 313.514 94.869, 313.088 93.318 L 312.312 90.500 311.656 93.750 M 390.500 96.208 C 387.616 97.862, 386.256 99.731, 382.875 106.690 C 379.013 114.639, 377.967 123.201, 380.514 126.015 C 382.808 128.550, 384.078 128.513, 387.514 125.811 C 394.016 120.696, 399.539 100.682, 395.550 96.693 C 393.574 94.717, 393.168 94.678, 390.500 96.208 M 225.446 97.614 C 227.649 103.045, 229.165 108.168, 228.705 108.628 C 227.839 109.494, 222.413 106.258, 219.427 103.095 C 217.882 101.457, 216.286 100.323, 215.881 100.573 C 214.962 101.142, 227.014 131, 228.162 131 C 229.621 131, 229.102 129.076, 224.997 119.251 C 222.796 113.983, 221.231 109.436, 221.519 109.147 C 222.390 108.277, 231.020 112.889, 231.665 114.570 C 231.995 115.430, 231.756 116.644, 231.133 117.267 C 229.342 119.058, 229.811 120.195, 232.048 119.485 C 233.750 118.945, 234.367 119.524, 235.700 122.917 C 237.239 126.837, 239.013 128.365, 238.988 125.750 C 238.963 123.224, 227.266 96.589, 225.995 96.165 C 225.060 95.853, 224.902 96.270, 225.446 97.614 M 389.022 100.698 C 382.930 108.442, 379.181 125, 383.520 125 C 387.324 125, 394.058 111.337, 394.345 103.035 C 394.536 97.519, 392.297 96.536, 389.022 100.698 M 415.666 111.250 C 404.839 130.277, 402.143 135.422, 402.606 136.171 C 403.541 137.684, 404.695 136.207, 410.139 126.532 C 413.068 121.325, 415.794 117.394, 416.196 117.796 C 416.598 118.198, 417.230 121.108, 417.601 124.263 C 418.271 129.966, 418.260 130, 415.638 130 C 412.933 130, 412.011 131.499, 414.250 132.255 C 415.198 132.575, 415.078 133.569, 413.750 136.373 C 411.805 140.479, 411.568 142, 412.874 142 C 414.022 142, 429 115.585, 429 113.561 C 429 110.539, 427.215 112.058, 424.373 117.498 C 422.793 120.521, 421.183 122.996, 420.795 122.998 C 419.585 123.002, 418.721 116.054, 419.355 111.424 C 420.123 105.824, 418.789 105.761, 415.666 111.250 M 195 110.639 C 195 110.991, 196.350 113.473, 198 116.154 C 200.690 120.526, 201.647 123, 200.649 123 C 198.939 123, 192.855 120.245, 190.184 118.261 C 188.361 116.906, 186.613 116.054, 186.300 116.367 C 185.681 116.986, 200.659 142.671, 202.193 143.619 C 204.659 145.144, 203.642 142.479, 198.550 134.082 C 193.457 125.684, 192.225 123, 193.462 123 C 193.717 123, 196.417 123.932, 199.462 125.072 C 204.633 127.006, 206.343 129.052, 204 130.500 C 202.122 131.661, 202.995 133.039, 205.250 132.474 C 207.067 132.019, 207.867 132.592, 209.407 135.455 C 211.199 138.785, 213 140.113, 213 138.105 C 213 136.492, 196.932 110, 195.954 110 C 195.429 110, 195 110.288, 195 110.639 M 168.305 129.310 C 169.515 132.538, 187.220 154.982, 188.118 154.427 C 188.597 154.131, 184.859 148.501, 179.813 141.916 C 170.303 129.508, 167.037 125.930, 168.305 129.310 M 462.913 144.984 C 458.071 147.544, 448.454 158.094, 447.030 162.409 C 445.462 167.161, 446.991 170, 451.119 170 C 453.123 170, 454.017 169.572, 453.730 168.750 C 453.489 168.063, 452.546 167.634, 451.633 167.797 C 446.298 168.751, 450.606 159.500, 459.344 151.236 C 465.335 145.570, 470 144.154, 470 148 C 470 150.149, 471.921 150.830, 472.118 148.750 C 472.668 142.949, 469.340 141.587, 462.913 144.984 M 291.500 149.035 C 228.523 156.234, 173.445 200.690, 153.442 260.467 C 146.546 281.077, 145.568 287.788, 145.572 314.500 C 145.576 340.796, 146.331 346.068, 153.088 366.987 C 168.579 414.945, 209.376 455.544, 258.500 471.886 C 277.148 478.090, 286.265 479.409, 310.500 479.409 C 329.435 479.409, 333.914 479.102, 342.647 477.206 C 409.686 462.657, 458.828 413.437, 473.147 346.500 C 475.232 336.751, 475.491 332.998, 475.424 313.500 C 475.338 288.955, 474.164 281.208, 467.514 261.336 C 456.572 228.637, 436.324 200.962, 408 179.993 C 396.929 171.796, 374.533 160.317, 361.299 156.055 C 340.999 149.516, 312.428 146.643, 291.500 149.035 M 134 162.257 C 134.825 163.049, 139.887 167.406, 145.250 171.938 C 155.561 180.651, 157.239 183.731, 152.933 186.036 C 150.375 187.405, 148.787 186.445, 136.697 176.219 C 131.855 172.124, 127.606 169.060, 127.256 169.411 C 126.512 170.155, 126.715 170.349, 138.500 180.154 C 148.697 188.637, 150.270 189.453, 153.322 187.847 C 156.201 186.332, 156.966 185.058, 156.985 181.750 C 156.997 179.468, 155.202 177.513, 146.419 170.250 C 140.599 165.438, 135.087 161.346, 134.169 161.158 C 132.689 160.854, 132.670 160.979, 134 162.257 M 474.180 172.055 C 467.481 177.585, 462 182.477, 462 182.926 C 462 183.375, 463.722 185.684, 465.827 188.055 C 470.183 192.964, 472.590 192.043, 468.405 187.070 C 465.464 183.575, 465.766 181.519, 469.468 179.833 C 471.579 178.871, 472.345 178.995, 474.153 180.591 C 476.285 182.474, 476.307 182.473, 475.770 180.500 C 475.471 179.400, 474.982 177.825, 474.682 177 C 474.324 176.015, 476.160 173.869, 480.030 170.750 C 483.270 168.137, 486.357 166, 486.888 166 C 487.420 166, 488.995 167.457, 490.389 169.238 C 492.066 171.381, 493.259 172.141, 493.916 171.484 C 495.007 170.393, 489.314 162.103, 487.430 162.037 C 486.841 162.017, 480.878 166.525, 474.180 172.055 M 300.571 186.571 C 299.707 187.436, 299 188.320, 299 188.537 C 299 188.962, 285.290 275.336, 279.483 311.500 C 277.540 323.600, 273.475 349.025, 270.450 368 C 267.425 386.975, 263.573 410.959, 261.891 421.297 C 259.476 436.143, 259.087 440.400, 260.039 441.547 C 261.619 443.450, 277.266 443.620, 278.740 441.750 C 279.282 441.063, 280.731 433.975, 281.961 426 C 286.910 393.894, 288.723 384.039, 289.955 382.555 C 291.038 381.249, 294.230 381.002, 309.872 381.015 C 320.118 381.024, 329.079 381.398, 329.787 381.847 C 330.583 382.352, 332.902 393.818, 335.869 411.919 C 339.136 431.851, 341.116 441.460, 342.082 442.072 C 344.595 443.663, 358.591 443.198, 360.020 441.476 C 361.287 439.949, 360.802 436.708, 339.967 307.500 C 338.370 297.600, 335.506 279.825, 333.602 268 C 331.699 256.175, 328.013 233.299, 325.413 217.164 C 322.451 198.782, 320.158 187.300, 319.271 186.414 C 317.189 184.332, 302.689 184.454, 300.571 186.571 M 111.028 192.109 C 107.782 197.385, 107.596 199.883, 110.725 196.186 L 112.500 194.088 125.388 202.072 C 132.477 206.463, 138.539 209.794, 138.860 209.474 C 139.180 209.153, 138.965 208.578, 138.381 208.196 C 137.797 207.813, 132.047 204.191, 125.603 200.147 C 114.296 193.050, 113.909 192.692, 114.523 189.897 C 115.430 185.766, 114.612 186.284, 111.028 192.109 M 491.718 195.745 C 482.661 201.391, 478.274 204.674, 478.922 205.322 C 479.570 205.970, 483.095 204.401, 489.204 200.745 C 494.317 197.686, 498.675 195.354, 498.888 195.563 C 499.101 195.772, 498.708 197.972, 498.013 200.452 C 496.536 205.730, 494.519 207.919, 492.758 206.158 C 490.940 204.340, 489.714 204.800, 490.310 207.077 C 490.726 208.670, 490.054 209.626, 487.427 211.176 C 483.713 213.367, 482.803 215.546, 485.946 214.724 C 488.855 213.964, 513 198.953, 513 197.906 C 513 196.289, 510.820 196.939, 505.720 200.077 L 500.719 203.154 501.368 199.827 C 501.724 197.997, 503.326 194.626, 504.927 192.336 C 507.502 188.652, 507.901 186.838, 506.083 187.077 C 505.762 187.119, 499.298 191.020, 491.718 195.745 M 521.172 219.100 L 521.500 222.415 508.031 228.115 C 495.442 233.442, 491.340 236.047, 495.667 235.966 C 496.675 235.947, 503.125 233.475, 510 230.474 C 522.341 225.085, 522.521 225.041, 524.160 227.008 C 525.597 228.731, 528 229.743, 528 228.624 C 528 228.418, 526.899 225.759, 525.553 222.716 C 522.556 215.939, 520.707 214.413, 521.172 219.100 M 97.831 218.250 C 94.951 220.570, 94.875 222.966, 97.595 225.686 C 100.104 228.195, 100.408 228.244, 109.335 227.592 C 115.201 227.164, 119.641 227.322, 121.670 228.031 C 126.512 229.725, 126.834 232.347, 122.500 234.805 C 120.512 235.932, 120.512 235.939, 122.550 235.970 C 127.135 236.038, 128.695 230.119, 124.750 227.621 C 121.227 225.390, 117.036 224.882, 110.054 225.839 C 102.761 226.839, 99.144 226.200, 97.577 223.636 C 96.718 222.231, 96.955 221.501, 98.750 220.027 C 99.987 219.011, 101 217.914, 101 217.590 C 101 216.608, 99.475 216.926, 97.831 218.250 M 518.223 251.536 C 509.821 253.837, 502.707 255.960, 502.414 256.253 C 502.121 256.545, 502.615 259.308, 503.512 262.393 C 505.565 269.455, 507.510 269.902, 506.608 263.105 C 505.969 258.282, 506.006 258.194, 509.163 257.093 C 512.461 255.943, 513.948 256.763, 513.985 259.750 C 513.993 260.438, 514.711 261, 515.579 261 C 516.807 261, 517.015 260.345, 516.512 258.057 C 515.805 254.834, 514.719 255.401, 528.351 251.867 C 530.469 251.318, 532.300 251.011, 532.421 251.184 C 532.541 251.358, 533.205 253.468, 533.897 255.873 C 534.769 258.906, 535.473 259.927, 536.196 259.204 C 537.259 258.141, 535.522 248.351, 534.150 247.673 C 533.792 247.496, 526.625 249.235, 518.223 251.536 M 86.202 250.105 C 86.715 251.646, 114.828 265.087, 115.446 264.087 C 115.704 263.670, 114.359 262.588, 112.457 261.681 C 106.718 258.944, 108.206 253.285, 114.400 254.290 C 116.380 254.611, 118 254.503, 118 254.048 C 118 253.030, 114.483 252.398, 101 250.998 C 95.225 250.398, 89.443 249.683, 88.152 249.410 C 86.614 249.084, 85.941 249.324, 86.202 250.105 M 95 252.762 C 95 254.139, 104.878 258.261, 106.597 257.601 C 108.083 257.031, 108.513 254.432, 107.250 253.659 C 105.499 252.587, 95 251.818, 95 252.762 M 308.499 262.002 C 307.939 262.908, 304.353 284.774, 295.968 338.405 C 293.763 352.509, 293.296 357.652, 294.129 358.655 C 294.971 359.670, 298.861 360, 310 360 C 327.883 360, 327.780 360.062, 326.214 350.226 C 312.641 264.971, 311.175 257.672, 308.499 262.002 M 523.500 280.035 C 516.350 281.040, 509.938 281.894, 509.250 281.931 C 508.563 281.969, 508 282.715, 508 283.588 C 508 284.886, 508.729 285.053, 512 284.500 C 517.072 283.643, 517.345 285.391, 512.500 287.701 C 510.575 288.619, 509 289.962, 509 290.685 C 509 292.410, 509.375 292.360, 513.962 290.019 C 517.490 288.219, 518.104 288.173, 520.673 289.513 C 524.228 291.367, 530.075 291.413, 534.364 289.621 C 541.143 286.789, 544.482 278.674, 539 278.354 C 537.625 278.273, 530.650 279.030, 523.500 280.035 M 83.750 281.735 C 81.138 281.941, 79 282.430, 79 282.822 C 79 283.214, 85.412 285.489, 93.250 287.877 C 101.088 290.266, 108.063 292.433, 108.750 292.694 C 109.438 292.954, 110 292.744, 110 292.228 C 110 291.712, 108.537 290.870, 106.750 290.357 C 104.024 289.576, 103.500 288.947, 103.500 286.463 C 103.500 283.805, 103.860 283.467, 107 283.179 C 108.925 283.002, 110.928 282.439, 111.450 281.929 C 112.370 281.029, 94.306 280.903, 83.750 281.735 M 527.500 282.515 C 523.100 283.193, 519.275 283.820, 519 283.907 C 518.725 283.995, 519.562 284.952, 520.861 286.033 C 523.967 288.621, 530.487 288.610, 534.750 286.011 C 537.922 284.077, 539.243 280.860, 536.750 281.140 C 536.063 281.218, 531.900 281.836, 527.500 282.515 M 88.578 283.874 C 88.281 284.354, 90.782 285.517, 94.135 286.458 C 100.492 288.241, 102.847 287.650, 101.664 284.567 C 101.211 283.386, 99.591 283, 95.090 283 C 91.806 283, 88.875 283.393, 88.578 283.874 M 90.500 338 C 87.792 338.689, 87.937 338.768, 92 338.811 C 94.475 338.838, 97.400 338.473, 98.500 338 C 100.108 337.309, 99.815 337.150, 97 337.189 C 95.075 337.215, 92.150 337.580, 90.500 338 M 517.785 351.010 C 517.251 354.653, 518.371 355.483, 525.204 356.508 C 529.656 357.176, 529.942 357.078, 530.543 354.686 C 530.892 353.296, 530.983 351.335, 530.746 350.329 C 530.390 348.820, 530.116 348.982, 529.182 351.250 C 527.876 354.422, 524.490 355.184, 525.473 352.084 C 525.808 351.030, 525.583 349.860, 524.973 349.484 C 524.336 349.089, 523.632 349.690, 523.316 350.899 C 522.576 353.731, 519.776 353.681, 520.187 350.843 C 520.359 349.657, 519.991 348.512, 519.370 348.300 C 518.743 348.085, 518.037 349.294, 517.785 351.010 M 94.500 349.727 C 92.850 349.962, 91.050 350.604, 90.500 351.155 C 89.833 351.823, 90.831 351.911, 93.500 351.421 C 97.149 350.751, 97.379 350.832, 96.128 352.343 C 94.281 354.572, 95.954 354.389, 98.750 352.056 C 102.435 348.982, 101.877 348.677, 94.500 349.727 M 91.980 355.524 C 91.284 356.362, 90.892 357.178, 91.107 357.337 C 91.953 357.958, 102 355.797, 102 354.994 C 102 354.522, 100.662 354.523, 99.013 354.996 C 97.250 355.502, 95.793 355.473, 95.454 354.926 C 94.623 353.581, 93.421 353.787, 91.980 355.524 M 515.200 366.200 C 514.540 366.860, 514 368.418, 514 369.661 C 514 371.483, 514.827 372.136, 518.250 373.021 C 520.587 373.625, 523.288 374.348, 524.250 374.627 C 525.388 374.957, 526 374.587, 526 373.567 C 526 372.705, 525.325 372, 524.500 372 C 522.172 372, 522.733 370.178, 525.172 369.820 C 526.366 369.644, 527.550 368.874, 527.802 368.109 C 528.145 367.068, 527.628 366.877, 525.745 367.349 C 524.097 367.763, 522.802 367.466, 521.992 366.490 C 520.503 364.697, 516.859 364.541, 515.200 366.200 M 99.320 367.348 C 94.256 368.743, 92.381 370.274, 96.823 369.385 C 100.720 368.606, 100.817 369.345, 97.250 372.621 L 94.500 375.147 98.904 374.537 C 101.326 374.202, 104.026 373.484, 104.904 372.943 C 106.038 372.244, 105.342 372.130, 102.500 372.550 L 98.500 373.140 101.759 370.320 C 106.811 365.949, 106.366 365.407, 99.320 367.348 M 516.570 368.886 C 516.269 369.374, 516.917 370.007, 518.011 370.293 C 519.300 370.630, 520 370.318, 520 369.406 C 520 367.861, 517.443 367.474, 516.570 368.886 M 510.182 382.046 C 510.426 382.777, 512.509 384.003, 514.813 384.771 C 517.324 385.608, 519 386.786, 519 387.714 C 519 389.273, 516.290 389.182, 510.250 387.422 C 506.199 386.242, 507.887 388.685, 512.283 390.364 C 517.852 392.491, 519.701 392.427, 520.965 390.066 C 522.742 386.746, 522.118 384.947, 518.695 383.517 C 512.940 381.112, 509.683 380.550, 510.182 382.046 M 103.814 384.708 C 99.613 386.434, 98.916 387.568, 100.099 390.750 C 101.067 393.355, 102.746 393.551, 107.410 391.602 C 111.820 389.760, 112.506 388.422, 110.563 385.456 C 108.732 382.662, 108.783 382.667, 103.814 384.708 M 103.750 386.162 C 100.874 387.213, 99.976 390.393, 102.302 391.286 C 104.664 392.192, 110 389.255, 110 387.048 C 110 384.783, 108.218 384.531, 103.750 386.162 M 502.987 400.032 C 501.641 403.281, 502.307 405.093, 504.165 403.235 C 505.008 402.392, 505.962 402.440, 507.899 403.425 C 512.149 405.585, 515 406.239, 515 405.054 C 515 404.460, 512.975 402.990, 510.500 401.788 C 508.025 400.585, 506 399.016, 506 398.301 C 506 395.947, 504.266 396.943, 502.987 400.032 M 111.233 402.650 C 105.712 407.236, 105.826 408.292, 111.750 407.437 C 118.444 406.471, 120.893 404.728, 114.500 405.480 L 109.500 406.068 112.994 403.111 C 114.915 401.485, 116.258 399.924, 115.977 399.644 C 115.696 399.363, 113.562 400.716, 111.233 402.650 M 497.540 411.936 C 496.964 412.868, 502.426 416.987, 504.250 416.996 C 504.663 416.998, 505 417.900, 505 419 C 505 420.100, 504.757 421, 504.460 421 C 504.163 421, 502.156 420.100, 500 419 C 495.662 416.787, 494 416.504, 494 417.980 C 494 419.454, 501.854 423.164, 504.225 422.809 C 507.037 422.389, 508.790 419.476, 507.480 417.400 C 505.920 414.926, 498.285 410.730, 497.540 411.936 M 119.500 417.181 C 112.650 418.848, 112.247 419.103, 114.864 420.110 C 116.572 420.768, 117.084 421.572, 116.708 423.010 C 116.421 424.104, 116.504 425, 116.891 425 C 117.800 425, 125 417.638, 125 416.708 C 125 415.879, 124.762 415.899, 119.500 417.181 M 119.029 418.961 C 118.220 419.473, 117.893 420.226, 118.303 420.636 C 118.712 421.046, 119.808 420.620, 120.738 419.690 C 122.545 417.883, 121.464 417.421, 119.029 418.961 M 487.609 428.473 C 486.724 429.824, 486 431.364, 486 431.894 C 486 432.960, 494.542 439, 496.050 439 C 497.740 439, 497.059 437.283, 494.764 435.759 C 492.818 434.467, 492.707 434.059, 493.906 432.613 C 495.844 430.279, 494.412 429.318, 492.105 431.405 C 489.808 433.484, 488.410 431.972, 489.956 429.081 C 491.528 426.146, 489.482 425.616, 487.609 428.473 M 131 429.486 C 131 430.303, 129.191 432.169, 126.980 433.632 C 124.768 435.095, 123.184 436.518, 123.459 436.793 C 123.734 437.068, 125.749 436.108, 127.936 434.661 C 130.319 433.084, 132.581 432.286, 133.581 432.669 C 135.105 433.254, 135.099 433.081, 133.509 430.655 C 131.524 427.624, 131 427.380, 131 429.486 M 135.646 444.648 C 133.070 446.655, 131.169 448.502, 131.421 448.754 C 132.034 449.367, 141 442.887, 141 441.830 C 141 440.560, 140.672 440.732, 135.646 444.648 M 470.021 452.478 L 467.693 454.956 472.096 458.937 C 474.518 461.126, 476.837 462.936, 477.250 462.959 C 478.443 463.024, 478.120 460.525, 476.750 459.095 C 475.728 458.028, 476.093 457.914, 478.750 458.474 C 481.334 459.019, 482 458.835, 482 457.579 C 482 456.667, 481.156 456, 480 456 C 478.900 456, 478 455.550, 478 455 C 478 453.795, 474.337 450, 473.174 450 C 472.720 450, 471.301 451.115, 470.021 452.478 M 143.235 454.447 C 140.179 457.267, 139.694 458.209, 140.567 459.630 C 142.972 463.544, 144.750 463.634, 148.470 460.030 C 152.484 456.138, 152.750 454.988, 150.171 452.655 C 147.718 450.435, 147.531 450.483, 143.235 454.447 M 144.048 455.449 C 141.683 457.967, 141.817 461, 144.294 461 C 146.418 461, 150.328 456.298, 149.658 454.551 C 148.796 452.306, 146.683 452.644, 144.048 455.449 M 471.570 453.887 C 471.269 454.374, 471.652 455.296, 472.422 455.935 C 473.981 457.229, 475.577 455.742, 474.500 454 C 473.735 452.762, 472.300 452.706, 471.570 453.887 M 458.655 463.829 C 456.288 466.444, 456.505 467.098, 461.308 471.811 L 465.615 476.039 467.978 473.523 C 470.682 470.646, 470.189 469.241, 467.143 471.143 C 464.589 472.737, 463.188 471.530, 464.729 469.062 C 465.363 468.047, 465.635 466.969, 465.333 466.667 C 465.031 466.365, 463.953 466.637, 462.938 467.271 C 460.516 468.783, 459.252 467.428, 460.788 464.968 C 462.953 461.500, 461.476 460.711, 458.655 463.829 M 155.518 467.982 C 153.380 470.172, 151.927 472.260, 152.290 472.623 C 152.653 472.986, 153.823 472.207, 154.889 470.892 C 157.375 467.825, 158.324 468.773, 156.889 472.889 C 155.197 477.744, 156.614 477.857, 161.235 473.235 C 165.693 468.778, 165.781 466.029, 161.336 470.079 C 159.179 472.045, 158.805 472.154, 159.344 470.657 C 160.788 466.651, 161.174 464, 160.311 464 C 159.813 464, 157.656 465.792, 155.518 467.982 M 446.745 475.119 C 444.039 477.137, 443.791 479.401, 446.384 478.406 C 447.110 478.127, 449.107 479.497, 450.822 481.450 C 453.641 484.661, 456 485.997, 456 484.382 C 456 484.042, 454.631 482.205, 452.959 480.300 C 450.898 477.954, 450.114 476.217, 450.526 474.918 C 451.302 472.474, 450.213 472.532, 446.745 475.119 M 178.250 487.497 C 174.845 492.126, 174.461 493, 175.830 493 C 176.665 493, 183 484.683, 183 483.587 C 183 482.009, 181.190 483.500, 178.250 487.497 M 434.655 484.829 C 432.656 487.037, 432.522 488.121, 434.334 487.425 C 435.114 487.126, 436.832 488.593, 438.470 490.957 C 441.204 494.902, 443 496.082, 443 493.933 C 443 493.347, 441.825 491.326, 440.389 489.443 C 438.953 487.561, 438.039 485.341, 438.358 484.510 C 439.171 482.390, 436.667 482.605, 434.655 484.829 M 190.388 491.464 C 188.545 492.819, 188.544 492.926, 190.360 496.016 C 191.784 498.439, 191.944 499.452, 191.042 500.340 C 190.148 501.222, 189.555 501.080, 188.572 499.750 C 186.981 497.596, 186 497.509, 186 499.521 C 186 501.842, 190.563 503.607, 192.470 502.025 C 194.464 500.370, 194.410 498.111, 192.324 495.805 C 190.989 494.330, 190.901 493.703, 191.891 492.726 C 192.875 491.756, 193.431 491.902, 194.557 493.427 C 195.989 495.367, 197.767 495.049, 196.544 493.072 C 195.130 490.783, 192.316 490.048, 190.388 491.464 M 421.282 493.772 L 419.064 495.500 422.159 500.500 C 423.861 503.250, 425.361 505.627, 425.492 505.781 C 425.917 506.285, 431.987 502.522, 431.994 501.750 C 432.002 500.709, 430.217 500.813, 428.034 501.982 C 426.664 502.715, 426.052 502.579, 425.617 501.444 C 425.289 500.589, 425.682 499.675, 426.517 499.355 C 428.998 498.403, 428.185 496.737, 425.561 497.395 C 422.403 498.188, 421.327 496.437, 423.961 494.792 C 425.083 494.092, 426 493.177, 426 492.759 C 426 491.454, 423.596 491.970, 421.282 493.772 M 406.250 502.277 C 405.012 502.843, 404 503.702, 404 504.186 C 404 505.780, 409.015 515, 409.882 515 C 411.455 515, 416 510.867, 416 509.436 C 416 508.655, 415.100 507.455, 414 506.768 C 412.900 506.081, 412 504.968, 412 504.295 C 412 502.282, 408.742 501.139, 406.250 502.277 M 215.746 505.146 C 216.607 506.007, 216.408 507.239, 214.946 510.106 C 213.876 512.204, 213 514.415, 213 515.019 C 213 517.148, 215.102 514.784, 216.651 510.915 C 217.568 508.624, 218.898 506.987, 219.859 506.968 C 221.250 506.941, 221.205 506.713, 219.559 505.468 C 217.178 503.668, 213.999 503.399, 215.746 505.146 M 409.446 509.087 C 408.573 510.499, 410.501 512.427, 411.913 511.554 C 412.511 511.184, 413 510.234, 413 509.441 C 413 507.757, 410.426 507.501, 409.446 509.087 M 228.484 513.692 C 226.251 519.037, 225.641 522, 226.775 522 C 227.320 522, 228.012 521.061, 228.312 519.913 C 229.166 516.650, 232.576 517.850, 232.212 521.286 C 231.731 525.825, 233.475 524.326, 235.456 518.497 C 237.342 512.948, 236.950 509.371, 235.014 514.463 C 234.295 516.355, 233.487 517.017, 232.404 516.602 C 231.542 516.271, 230.659 516, 230.443 516 C 230.227 516, 230.320 514.650, 230.650 513 C 231.475 508.875, 230.346 509.235, 228.484 513.692 M 380.684 513.750 C 379.979 514.970, 381.178 526, 382.017 526 C 382.440 526, 383.063 525.277, 383.402 524.394 C 383.841 523.251, 384.736 522.968, 386.509 523.413 C 389.706 524.215, 389.647 523.684, 385.896 517.838 C 382.904 513.175, 381.606 512.157, 380.684 513.750 M 245.379 521.467 C 244.293 524.913, 243.982 527.375, 244.563 527.942 C 246.024 529.371, 251 530.356, 251 529.217 C 251 528.667, 249.843 527.926, 248.429 527.572 C 245.139 526.746, 245.801 524.664, 249.582 523.945 C 252.361 523.416, 252.393 523.354, 250.250 522.628 C 246.763 521.446, 247.430 519.005, 251.250 518.970 C 254.627 518.938, 253.833 517.955, 249.316 516.574 C 247.369 515.980, 246.941 516.512, 245.379 521.467 M 351.200 522.750 C 350.705 523.746, 350.711 526.309, 351.213 528.698 C 352.199 533.380, 354.559 534.842, 358.084 532.955 C 359.969 531.946, 360.166 531.227, 359.630 527.317 C 359.292 524.851, 358.760 522.421, 358.449 521.917 C 357.439 520.283, 352.123 520.894, 351.200 522.750 M 273.451 528.546 C 272.754 534.123, 273.581 537.319, 274.656 533.206 C 275.410 530.322, 276.413 530.415, 277.818 533.500 C 278.445 534.875, 279.428 536, 280.004 536 C 280.619 536, 280.403 534.747, 279.482 532.965 C 278.009 530.116, 278.042 529.750, 280.025 526.965 C 282.495 523.496, 280.743 522.894, 277.944 526.250 L 276.067 528.500 276.033 525.750 C 275.974 520.871, 274.165 522.829, 273.451 528.546 M 337.250 523.706 C 334.699 524.197, 334.293 525.515, 336.440 526.339 C 337.300 526.669, 338.005 528.593, 338.190 531.118 C 338.360 533.443, 339.033 535.520, 339.684 535.734 C 340.545 536.017, 340.712 534.607, 340.294 530.561 C 339.899 526.730, 340.075 525, 340.860 525 C 341.487 525, 342 524.550, 342 524 C 342 522.982, 341.249 522.936, 337.250 523.706 M 353 525.736 C 353 529.506, 355.026 532.262, 356.919 531.068 C 358.017 530.376, 358.122 529.417, 357.384 526.843 C 356.130 522.472, 353 521.681, 353 525.736 M 291.533 530.584 C 291.149 533.655, 291.017 536.351, 291.240 536.574 C 292.300 537.634, 298 538.157, 298 537.195 C 298 536.614, 296.988 535.995, 295.750 535.820 C 292.721 535.389, 292.888 532.763, 296 531.884 L 298.500 531.178 296.250 530.472 C 293.179 529.509, 293.359 527, 296.500 527 C 297.875 527, 299 526.550, 299 526 C 299 525.450, 297.477 525, 295.615 525 C 292.256 525, 292.225 525.043, 291.533 530.584 M 308.531 527 C 308.907 528.375, 309.719 531.413, 310.335 533.750 C 311.716 538.992, 312.630 539.146, 313.314 534.250 C 313.603 532.188, 314.119 529.150, 314.461 527.500 C 315.082 524.510, 315.078 524.508, 313.435 526.728 L 311.785 528.956 309.817 526.728 L 307.848 524.500 308.531 527" stroke="none" fill="#f2aa97" fill-rule="evenodd"/><path d="M 0 317.002 L 0 634.003 314.750 633.752 L 629.500 633.500 629.752 316.750 L 630.003 -0 315.002 -0 L 0 0 0 317.002 M 0.494 317.500 C 0.494 491.850, 0.609 563.026, 0.750 475.669 C 0.891 388.312, 0.891 245.662, 0.750 158.669 C 0.609 71.676, 0.494 143.150, 0.494 317.500 M 298.500 32.674 C 198.048 36.400, 104.722 96.887, 59.073 187.855 C 50.476 204.985, 40.806 231.209, 37.533 246.269 C 36.788 249.696, 35.438 255.875, 34.532 260 C 28.705 286.543, 27.961 324.125, 32.612 357 C 36.934 387.548, 49.704 424.889, 64.846 451.250 C 66.031 453.312, 67.947 456.687, 69.104 458.750 C 73.810 467.138, 89.004 488.374, 96.470 497 C 109.256 511.771, 128.832 530.039, 143.761 541.131 C 174.344 563.855, 216.369 582.635, 252.976 589.938 C 275.338 594.399, 285.773 595.371, 311 595.342 C 332.464 595.317, 337.595 594.987, 352.403 592.672 C 401.847 584.943, 447.980 564.841, 486 534.458 C 498.867 524.175, 524.443 497.930, 534.196 485 C 565.372 443.670, 582.916 400.404, 590.155 347 C 592.942 326.439, 591.669 286.727, 587.495 264 C 576.715 205.306, 547.640 151.198, 505.239 110.924 C 448.861 57.375, 376.004 29.799, 298.500 32.674 M 295 35.591 C 238.955 40.296, 197.544 54.123, 155 82.337 C 124.640 102.471, 96.692 130.625, 75.794 162.127 C 70.597 169.960, 58.230 192.539, 55.323 199.500 C 45.602 222.777, 43.445 228.935, 39.560 244.500 C 29.659 284.165, 28.246 320.862, 35.014 362.500 C 42.083 405.984, 62.477 451.187, 91.637 488 C 100.497 499.185, 126.284 524.843, 137 533.136 C 176.745 563.892, 220.923 582.760, 270.500 590.152 C 290.093 593.073, 328.065 593.328, 345.970 590.658 C 392.238 583.760, 428.189 570.168, 465 545.655 C 525.149 505.602, 568.807 440.560, 582.973 369.896 C 588.400 342.825, 589.870 306.736, 586.595 281 C 577.882 212.529, 546.859 152.896, 495.941 106.739 C 453.705 68.452, 396.756 42.847, 341 37.074 C 330.114 35.947, 301.681 35.030, 295 35.591 M 294.849 42.113 C 247.379 44.655, 200.301 60.228, 161.226 86.315 C 143.444 98.186, 134.324 105.639, 119.427 120.476 C 105.223 134.622, 102.374 137.893, 91.535 152.500 C 44.921 215.318, 28.147 294.996, 44.990 373.590 C 46.996 382.948, 53.167 404.184, 55.426 409.500 C 56.127 411.150, 58.195 416.100, 60.022 420.500 C 73.851 453.811, 93.758 482.806, 121.157 509.545 C 135.481 523.524, 143.277 529.925, 158.500 540.205 C 199.262 567.731, 242.496 582.327, 294.655 586.173 C 351.730 590.381, 415.194 572.768, 463.978 539.182 C 479.457 528.524, 486.415 522.755, 500.839 508.615 C 544.151 466.157, 570.802 413.782, 580.128 352.793 C 582.761 335.571, 583.296 297.759, 581.129 282 C 572.092 216.283, 543.645 159.882, 497.403 116 C 466.977 87.126, 429.110 65.192, 389 53.210 C 366.702 46.549, 349.294 43.432, 329.248 42.511 C 322.237 42.189, 314.925 41.791, 313 41.627 C 311.075 41.462, 302.907 41.681, 294.849 42.113 M 282.500 47.993 C 173.388 59.547, 82.835 135.609, 52.429 241.245 C 47.260 259.207, 44.077 278.215, 42.796 298.784 C 37.992 375.950, 67.786 452.339, 123.629 506.029 C 188.086 567.999, 276.310 593.578, 364.500 575.863 C 445.912 559.509, 517.650 502.284, 552.677 425.752 C 560.571 408.505, 564.932 396.016, 569.420 377.804 C 574.411 357.550, 576.032 345.324, 576.699 322.899 C 577.936 281.272, 571.484 246.136, 555.967 210 C 540.881 174.866, 522.381 148.092, 494.736 121.381 C 454.775 82.769, 405.260 58.342, 349 49.484 C 336.896 47.579, 295.234 46.644, 282.500 47.993 M 311.640 80.774 C 311.057 81.717, 306.006 110.364, 306.002 112.750 C 305.997 115.769, 308.037 113.623, 308.616 110 C 309.187 106.428, 309.558 106, 312.082 106 C 314.523 106, 314.999 106.480, 315.568 109.511 C 316.226 113.017, 317.465 114.715, 318.308 113.266 C 318.959 112.149, 314.053 81.653, 313.064 80.664 C 312.603 80.203, 311.962 80.252, 311.640 80.774 M 287.667 81.667 C 287.300 82.033, 286.993 86.646, 286.985 91.917 C 286.976 97.188, 286.611 102.065, 286.173 102.755 C 285.680 103.530, 284.325 100.282, 282.627 94.255 C 278.932 81.146, 279.080 81.520, 278 82.600 C 276.847 83.753, 285.157 114.219, 286.771 114.757 C 288.249 115.250, 288.786 111.223, 289.439 94.750 C 289.937 82.218, 289.600 79.733, 287.667 81.667 M 334 83 C 334 83.550, 334.873 84, 335.941 84 C 337.009 84, 338.080 84.338, 338.323 84.750 C 338.565 85.162, 337.931 91.575, 336.912 99 C 334.674 115.320, 334.687 115, 336.293 115 C 337.206 115, 338.117 110.808, 339.390 100.750 C 340.382 92.912, 341.401 86.162, 341.656 85.750 C 341.910 85.338, 343.216 85, 344.559 85 C 348.048 85, 347.577 83.365, 343.875 82.625 C 339.150 81.680, 334 81.875, 334 83 M 250.653 88.490 C 248.313 90.830, 247.783 95.288, 249.028 102.154 C 250.411 109.779, 252.365 114.695, 255.222 117.736 C 257.554 120.218, 261.198 120.710, 262.737 118.750 C 266.904 113.444, 262.214 93.065, 255.791 88.566 C 253.027 86.630, 252.520 86.623, 250.653 88.490 M 362.495 102.209 C 358.024 120.392, 358.228 119.149, 359.622 119.666 C 360.329 119.928, 362.136 114.423, 364.505 104.791 C 368.976 86.608, 368.772 87.851, 367.378 87.334 C 366.671 87.072, 364.864 92.577, 362.495 102.209 M 251.667 89.667 C 250.415 90.918, 250.997 101.626, 252.612 107.068 C 255.224 115.873, 259.752 120.694, 261.393 116.418 C 263.258 111.557, 260.011 96.826, 255.930 91.638 C 253.807 88.939, 252.841 88.492, 251.667 89.667 M 311.656 93.750 C 309.644 103.719, 309.615 103.192, 312.152 102.832 C 314.137 102.551, 314.451 102.008, 314.182 99.318 C 314.007 97.569, 313.514 94.869, 313.088 93.318 L 312.312 90.500 311.656 93.750 M 390.500 96.208 C 387.616 97.862, 386.256 99.731, 382.875 106.690 C 379.013 114.639, 377.967 123.201, 380.514 126.015 C 382.808 128.550, 384.078 128.513, 387.514 125.811 C 394.016 120.696, 399.539 100.682, 395.550 96.693 C 393.574 94.717, 393.168 94.678, 390.500 96.208 M 225.446 97.614 C 227.649 103.045, 229.165 108.168, 228.705 108.628 C 227.839 109.494, 222.413 106.258, 219.427 103.095 C 217.882 101.457, 216.286 100.323, 215.881 100.573 C 214.962 101.142, 227.014 131, 228.162 131 C 229.621 131, 229.102 129.076, 224.997 119.251 C 222.796 113.983, 221.231 109.436, 221.519 109.147 C 222.390 108.277, 231.020 112.889, 231.665 114.570 C 231.995 115.430, 231.756 116.644, 231.133 117.267 C 229.342 119.058, 229.811 120.195, 232.048 119.485 C 233.750 118.945, 234.367 119.524, 235.700 122.917 C 237.239 126.837, 239.013 128.365, 238.988 125.750 C 238.963 123.224, 227.266 96.589, 225.995 96.165 C 225.060 95.853, 224.902 96.270, 225.446 97.614 M 389.022 100.698 C 382.930 108.442, 379.181 125, 383.520 125 C 387.324 125, 394.058 111.337, 394.345 103.035 C 394.536 97.519, 392.297 96.536, 389.022 100.698 M 415.666 111.250 C 404.839 130.277, 402.143 135.422, 402.606 136.171 C 403.541 137.684, 404.695 136.207, 410.139 126.532 C 413.068 121.325, 415.794 117.394, 416.196 117.796 C 416.598 118.198, 417.230 121.108, 417.601 124.263 C 418.271 129.966, 418.260 130, 415.638 130 C 412.933 130, 412.011 131.499, 414.250 132.255 C 415.198 132.575, 415.078 133.569, 413.750 136.373 C 411.805 140.479, 411.568 142, 412.874 142 C 414.022 142, 429 115.585, 429 113.561 C 429 110.539, 427.215 112.058, 424.373 117.498 C 422.793 120.521, 421.183 122.996, 420.795 122.998 C 419.585 123.002, 418.721 116.054, 419.355 111.424 C 420.123 105.824, 418.789 105.761, 415.666 111.250 M 195 110.639 C 195 110.991, 196.350 113.473, 198 116.154 C 200.690 120.526, 201.647 123, 200.649 123 C 198.939 123, 192.855 120.245, 190.184 118.261 C 188.361 116.906, 186.613 116.054, 186.300 116.367 C 185.681 116.986, 200.659 142.671, 202.193 143.619 C 204.659 145.144, 203.642 142.479, 198.550 134.082 C 193.457 125.684, 192.225 123, 193.462 123 C 193.717 123, 196.417 123.932, 199.462 125.072 C 204.633 127.006, 206.343 129.052, 204 130.500 C 202.122 131.661, 202.995 133.039, 205.250 132.474 C 207.067 132.019, 207.867 132.592, 209.407 135.455 C 211.199 138.785, 213 140.113, 213 138.105 C 213 136.492, 196.932 110, 195.954 110 C 195.429 110, 195 110.288, 195 110.639 M 168.305 129.310 C 169.515 132.538, 187.220 154.982, 188.118 154.427 C 188.597 154.131, 184.859 148.501, 179.813 141.916 C 170.303 129.508, 167.037 125.930, 168.305 129.310 M 462.913 144.984 C 458.071 147.544, 448.454 158.094, 447.030 162.409 C 445.462 167.161, 446.991 170, 451.119 170 C 453.123 170, 454.017 169.572, 453.730 168.750 C 453.489 168.063, 452.546 167.634, 451.633 167.797 C 446.298 168.751, 450.606 159.500, 459.344 151.236 C 465.335 145.570, 470 144.154, 470 148 C 470 150.149, 471.921 150.830, 472.118 148.750 C 472.668 142.949, 469.340 141.587, 462.913 144.984 M 291.500 149.035 C 228.523 156.234, 173.445 200.690, 153.442 260.467 C 146.546 281.077, 145.568 287.788, 145.572 314.500 C 145.576 340.796, 146.331 346.068, 153.088 366.987 C 168.579 414.945, 209.376 455.544, 258.500 471.886 C 277.148 478.090, 286.265 479.409, 310.500 479.409 C 329.435 479.409, 333.914 479.102, 342.647 477.206 C 409.686 462.657, 458.828 413.437, 473.147 346.500 C 475.232 336.751, 475.491 332.998, 475.424 313.500 C 475.338 288.955, 474.164 281.208, 467.514 261.336 C 456.572 228.637, 436.324 200.962, 408 179.993 C 396.929 171.796, 374.533 160.317, 361.299 156.055 C 340.999 149.516, 312.428 146.643, 291.500 149.035 M 134 162.257 C 134.825 163.049, 139.887 167.406, 145.250 171.938 C 155.561 180.651, 157.239 183.731, 152.933 186.036 C 150.375 187.405, 148.787 186.445, 136.697 176.219 C 131.855 172.124, 127.606 169.060, 127.256 169.411 C 126.512 170.155, 126.715 170.349, 138.500 180.154 C 148.697 188.637, 150.270 189.453, 153.322 187.847 C 156.201 186.332, 156.966 185.058, 156.985 181.750 C 156.997 179.468, 155.202 177.513, 146.419 170.250 C 140.599 165.438, 135.087 161.346, 134.169 161.158 C 132.689 160.854, 132.670 160.979, 134 162.257 M 474.180 172.055 C 467.481 177.585, 462 182.477, 462 182.926 C 462 183.375, 463.722 185.684, 465.827 188.055 C 470.183 192.964, 472.590 192.043, 468.405 187.070 C 465.464 183.575, 465.766 181.519, 469.468 179.833 C 471.579 178.871, 472.345 178.995, 474.153 180.591 C 476.285 182.474, 476.307 182.473, 475.770 180.500 C 475.471 179.400, 474.982 177.825, 474.682 177 C 474.324 176.015, 476.160 173.869, 480.030 170.750 C 483.270 168.137, 486.357 166, 486.888 166 C 487.420 166, 488.995 167.457, 490.389 169.238 C 492.066 171.381, 493.259 172.141, 493.916 171.484 C 495.007 170.393, 489.314 162.103, 487.430 162.037 C 486.841 162.017, 480.878 166.525, 474.180 172.055 M 300.571 186.571 C 299.707 187.436, 299 188.320, 299 188.537 C 299 188.962, 285.290 275.336, 279.483 311.500 C 277.540 323.600, 273.475 349.025, 270.450 368 C 267.425 386.975, 263.573 410.959, 261.891 421.297 C 259.476 436.143, 259.087 440.400, 260.039 441.547 C 261.619 443.450, 277.266 443.620, 278.740 441.750 C 279.282 441.063, 280.731 433.975, 281.961 426 C 286.910 393.894, 288.723 384.039, 289.955 382.555 C 291.038 381.249, 294.230 381.002, 309.872 381.015 C 320.118 381.024, 329.079 381.398, 329.787 381.847 C 330.583 382.352, 332.902 393.818, 335.869 411.919 C 339.136 431.851, 341.116 441.460, 342.082 442.072 C 344.595 443.663, 358.591 443.198, 360.020 441.476 C 361.287 439.949, 360.802 436.708, 339.967 307.500 C 338.370 297.600, 335.506 279.825, 333.602 268 C 331.699 256.175, 328.013 233.299, 325.413 217.164 C 322.451 198.782, 320.158 187.300, 319.271 186.414 C 317.189 184.332, 302.689 184.454, 300.571 186.571 M 111.028 192.109 C 107.782 197.385, 107.596 199.883, 110.725 196.186 L 112.500 194.088 125.388 202.072 C 132.477 206.463, 138.539 209.794, 138.860 209.474 C 139.180 209.153, 138.965 208.578, 138.381 208.196 C 137.797 207.813, 132.047 204.191, 125.603 200.147 C 114.296 193.050, 113.909 192.692, 114.523 189.897 C 115.430 185.766, 114.612 186.284, 111.028 192.109 M 491.718 195.745 C 482.661 201.391, 478.274 204.674, 478.922 205.322 C 479.570 205.970, 483.095 204.401, 489.204 200.745 C 494.317 197.686, 498.675 195.354, 498.888 195.563 C 499.101 195.772, 498.708 197.972, 498.013 200.452 C 496.536 205.730, 494.519 207.919, 492.758 206.158 C 490.940 204.340, 489.714 204.800, 490.310 207.077 C 490.726 208.670, 490.054 209.626, 487.427 211.176 C 483.713 213.367, 482.803 215.546, 485.946 214.724 C 488.855 213.964, 513 198.953, 513 197.906 C 513 196.289, 510.820 196.939, 505.720 200.077 L 500.719 203.154 501.368 199.827 C 501.724 197.997, 503.326 194.626, 504.927 192.336 C 507.502 188.652, 507.901 186.838, 506.083 187.077 C 505.762 187.119, 499.298 191.020, 491.718 195.745 M 521.172 219.100 L 521.500 222.415 508.031 228.115 C 495.442 233.442, 491.340 236.047, 495.667 235.966 C 496.675 235.947, 503.125 233.475, 510 230.474 C 522.341 225.085, 522.521 225.041, 524.160 227.008 C 525.597 228.731, 528 229.743, 528 228.624 C 528 228.418, 526.899 225.759, 525.553 222.716 C 522.556 215.939, 520.707 214.413, 521.172 219.100 M 97.831 218.250 C 94.951 220.570, 94.875 222.966, 97.595 225.686 C 100.104 228.195, 100.408 228.244, 109.335 227.592 C 115.201 227.164, 119.641 227.322, 121.670 228.031 C 126.512 229.725, 126.834 232.347, 122.500 234.805 C 120.512 235.932, 120.512 235.939, 122.550 235.970 C 127.135 236.038, 128.695 230.119, 124.750 227.621 C 121.227 225.390, 117.036 224.882, 110.054 225.839 C 102.761 226.839, 99.144 226.200, 97.577 223.636 C 96.718 222.231, 96.955 221.501, 98.750 220.027 C 99.987 219.011, 101 217.914, 101 217.590 C 101 216.608, 99.475 216.926, 97.831 218.250 M 518.223 251.536 C 509.821 253.837, 502.707 255.960, 502.414 256.253 C 502.121 256.545, 502.615 259.308, 503.512 262.393 C 505.565 269.455, 507.510 269.902, 506.608 263.105 C 505.969 258.282, 506.006 258.194, 509.163 257.093 C 512.461 255.943, 513.948 256.763, 513.985 259.750 C 513.993 260.438, 514.711 261, 515.579 261 C 516.807 261, 517.015 260.345, 516.512 258.057 C 515.805 254.834, 514.719 255.401, 528.351 251.867 C 530.469 251.318, 532.300 251.011, 532.421 251.184 C 532.541 251.358, 533.205 253.468, 533.897 255.873 C 534.769 258.906, 535.473 259.927, 536.196 259.204 C 537.259 258.141, 535.522 248.351, 534.150 247.673 C 533.792 247.496, 526.625 249.235, 518.223 251.536 M 86.202 250.105 C 86.715 251.646, 114.828 265.087, 115.446 264.087 C 115.704 263.670, 114.359 262.588, 112.457 261.681 C 106.718 258.944, 108.206 253.285, 114.400 254.290 C 116.380 254.611, 118 254.503, 118 254.048 C 118 253.030, 114.483 252.398, 101 250.998 C 95.225 250.398, 89.443 249.683, 88.152 249.410 C 86.614 249.084, 85.941 249.324, 86.202 250.105 M 95 252.762 C 95 254.139, 104.878 258.261, 106.597 257.601 C 108.083 257.031, 108.513 254.432, 107.250 253.659 C 105.499 252.587, 95 251.818, 95 252.762 M 308.499 262.002 C 307.939 262.908, 304.353 284.774, 295.968 338.405 C 293.763 352.509, 293.296 357.652, 294.129 358.655 C 294.971 359.670, 298.861 360, 310 360 C 327.883 360, 327.780 360.062, 326.214 350.226 C 312.641 264.971, 311.175 257.672, 308.499 262.002 M 523.500 280.035 C 516.350 281.040, 509.938 281.894, 509.250 281.931 C 508.563 281.969, 508 282.715, 508 283.588 C 508 284.886, 508.729 285.053, 512 284.500 C 517.072 283.643, 517.345 285.391, 512.500 287.701 C 510.575 288.619, 509 289.962, 509 290.685 C 509 292.410, 509.375 292.360, 513.962 290.019 C 517.490 288.219, 518.104 288.173, 520.673 289.513 C 524.228 291.367, 530.075 291.413, 534.364 289.621 C 541.143 286.789, 544.482 278.674, 539 278.354 C 537.625 278.273, 530.650 279.030, 523.500 280.035 M 83.750 281.735 C 81.138 281.941, 79 282.430, 79 282.822 C 79 283.214, 85.412 285.489, 93.250 287.877 C 101.088 290.266, 108.063 292.433, 108.750 292.694 C 109.438 292.954, 110 292.744, 110 292.228 C 110 291.712, 108.537 290.870, 106.750 290.357 C 104.024 289.576, 103.500 288.947, 103.500 286.463 C 103.500 283.805, 103.860 283.467, 107 283.179 C 108.925 283.002, 110.928 282.439, 111.450 281.929 C 112.370 281.029, 94.306 280.903, 83.750 281.735 M 527.500 282.515 C 523.100 283.193, 519.275 283.820, 519 283.907 C 518.725 283.995, 519.562 284.952, 520.861 286.033 C 523.967 288.621, 530.487 288.610, 534.750 286.011 C 537.922 284.077, 539.243 280.860, 536.750 281.140 C 536.063 281.218, 531.900 281.836, 527.500 282.515 M 88.578 283.874 C 88.281 284.354, 90.782 285.517, 94.135 286.458 C 100.492 288.241, 102.847 287.650, 101.664 284.567 C 101.211 283.386, 99.591 283, 95.090 283 C 91.806 283, 88.875 283.393, 88.578 283.874 M 90.500 338 C 87.792 338.689, 87.937 338.768, 92 338.811 C 94.475 338.838, 97.400 338.473, 98.500 338 C 100.108 337.309, 99.815 337.150, 97 337.189 C 95.075 337.215, 92.150 337.580, 90.500 338 M 517.785 351.010 C 517.251 354.653, 518.371 355.483, 525.204 356.508 C 529.656 357.176, 529.942 357.078, 530.543 354.686 C 530.892 353.296, 530.983 351.335, 530.746 350.329 C 530.390 348.820, 530.116 348.982, 529.182 351.250 C 527.876 354.422, 524.490 355.184, 525.473 352.084 C 525.808 351.030, 525.583 349.860, 524.973 349.484 C 524.336 349.089, 523.632 349.690, 523.316 350.899 C 522.576 353.731, 519.776 353.681, 520.187 350.843 C 520.359 349.657, 519.991 348.512, 519.370 348.300 C 518.743 348.085, 518.037 349.294, 517.785 351.010 M 94.500 349.727 C 92.850 349.962, 91.050 350.604, 90.500 351.155 C 89.833 351.823, 90.831 351.911, 93.500 351.421 C 97.149 350.751, 97.379 350.832, 96.128 352.343 C 94.281 354.572, 95.954 354.389, 98.750 352.056 C 102.435 348.982, 101.877 348.677, 94.500 349.727 M 91.980 355.524 C 91.284 356.362, 90.892 357.178, 91.107 357.337 C 91.953 357.958, 102 355.797, 102 354.994 C 102 354.522, 100.662 354.523, 99.013 354.996 C 97.250 355.502, 95.793 355.473, 95.454 354.926 C 94.623 353.581, 93.421 353.787, 91.980 355.524 M 515.200 366.200 C 514.540 366.860, 514 368.418, 514 369.661 C 514 371.483, 514.827 372.136, 518.250 373.021 C 520.587 373.625, 523.288 374.348, 524.250 374.627 C 525.388 374.957, 526 374.587, 526 373.567 C 526 372.705, 525.325 372, 524.500 372 C 522.172 372, 522.733 370.178, 525.172 369.820 C 526.366 369.644, 527.550 368.874, 527.802 368.109 C 528.145 367.068, 527.628 366.877, 525.745 367.349 C 524.097 367.763, 522.802 367.466, 521.992 366.490 C 520.503 364.697, 516.859 364.541, 515.200 366.200 M 99.320 367.348 C 94.256 368.743, 92.381 370.274, 96.823 369.385 C 100.720 368.606, 100.817 369.345, 97.250 372.621 L 94.500 375.147 98.904 374.537 C 101.326 374.202, 104.026 373.484, 104.904 372.943 C 106.038 372.244, 105.342 372.130, 102.500 372.550 L 98.500 373.140 101.759 370.320 C 106.811 365.949, 106.366 365.407, 99.320 367.348 M 516.570 368.886 C 516.269 369.374, 516.917 370.007, 518.011 370.293 C 519.300 370.630, 520 370.318, 520 369.406 C 520 367.861, 517.443 367.474, 516.570 368.886 M 510.182 382.046 C 510.426 382.777, 512.509 384.003, 514.813 384.771 C 517.324 385.608, 519 386.786, 519 387.714 C 519 389.273, 516.290 389.182, 510.250 387.422 C 506.199 386.242, 507.887 388.685, 512.283 390.364 C 517.852 392.491, 519.701 392.427, 520.965 390.066 C 522.742 386.746, 522.118 384.947, 518.695 383.517 C 512.940 381.112, 509.683 380.550, 510.182 382.046 M 103.814 384.708 C 99.613 386.434, 98.916 387.568, 100.099 390.750 C 101.067 393.355, 102.746 393.551, 107.410 391.602 C 111.820 389.760, 112.506 388.422, 110.563 385.456 C 108.732 382.662, 108.783 382.667, 103.814 384.708 M 103.750 386.162 C 100.874 387.213, 99.976 390.393, 102.302 391.286 C 104.664 392.192, 110 389.255, 110 387.048 C 110 384.783, 108.218 384.531, 103.750 386.162 M 502.987 400.032 C 501.641 403.281, 502.307 405.093, 504.165 403.235 C 505.008 402.392, 505.962 402.440, 507.899 403.425 C 512.149 405.585, 515 406.239, 515 405.054 C 515 404.460, 512.975 402.990, 510.500 401.788 C 508.025 400.585, 506 399.016, 506 398.301 C 506 395.947, 504.266 396.943, 502.987 400.032 M 111.233 402.650 C 105.712 407.236, 105.826 408.292, 111.750 407.437 C 118.444 406.471, 120.893 404.728, 114.500 405.480 L 109.500 406.068 112.994 403.111 C 114.915 401.485, 116.258 399.924, 115.977 399.644 C 115.696 399.363, 113.562 400.716, 111.233 402.650 M 497.540 411.936 C 496.964 412.868, 502.426 416.987, 504.250 416.996 C 504.663 416.998, 505 417.900, 505 419 C 505 420.100, 504.757 421, 504.460 421 C 504.163 421, 502.156 420.100, 500 419 C 495.662 416.787, 494 416.504, 494 417.980 C 494 419.454, 501.854 423.164, 504.225 422.809 C 507.037 422.389, 508.790 419.476, 507.480 417.400 C 505.920 414.926, 498.285 410.730, 497.540 411.936 M 119.500 417.181 C 112.650 418.848, 112.247 419.103, 114.864 420.110 C 116.572 420.768, 117.084 421.572, 116.708 423.010 C 116.421 424.104, 116.504 425, 116.891 425 C 117.800 425, 125 417.638, 125 416.708 C 125 415.879, 124.762 415.899, 119.500 417.181 M 119.029 418.961 C 118.220 419.473, 117.893 420.226, 118.303 420.636 C 118.712 421.046, 119.808 420.620, 120.738 419.690 C 122.545 417.883, 121.464 417.421, 119.029 418.961 M 487.609 428.473 C 486.724 429.824, 486 431.364, 486 431.894 C 486 432.960, 494.542 439, 496.050 439 C 497.740 439, 497.059 437.283, 494.764 435.759 C 492.818 434.467, 492.707 434.059, 493.906 432.613 C 495.844 430.279, 494.412 429.318, 492.105 431.405 C 489.808 433.484, 488.410 431.972, 489.956 429.081 C 491.528 426.146, 489.482 425.616, 487.609 428.473 M 131 429.486 C 131 430.303, 129.191 432.169, 126.980 433.632 C 124.768 435.095, 123.184 436.518, 123.459 436.793 C 123.734 437.068, 125.749 436.108, 127.936 434.661 C 130.319 433.084, 132.581 432.286, 133.581 432.669 C 135.105 433.254, 135.099 433.081, 133.509 430.655 C 131.524 427.624, 131 427.380, 131 429.486 M 135.646 444.648 C 133.070 446.655, 131.169 448.502, 131.421 448.754 C 132.034 449.367, 141 442.887, 141 441.830 C 141 440.560, 140.672 440.732, 135.646 444.648 M 470.021 452.478 L 467.693 454.956 472.096 458.937 C 474.518 461.126, 476.837 462.936, 477.250 462.959 C 478.443 463.024, 478.120 460.525, 476.750 459.095 C 475.728 458.028, 476.093 457.914, 478.750 458.474 C 481.334 459.019, 482 458.835, 482 457.579 C 482 456.667, 481.156 456, 480 456 C 478.900 456, 478 455.550, 478 455 C 478 453.795, 474.337 450, 473.174 450 C 472.720 450, 471.301 451.115, 470.021 452.478 M 143.235 454.447 C 140.179 457.267, 139.694 458.209, 140.567 459.630 C 142.972 463.544, 144.750 463.634, 148.470 460.030 C 152.484 456.138, 152.750 454.988, 150.171 452.655 C 147.718 450.435, 147.531 450.483, 143.235 454.447 M 144.048 455.449 C 141.683 457.967, 141.817 461, 144.294 461 C 146.418 461, 150.328 456.298, 149.658 454.551 C 148.796 452.306, 146.683 452.644, 144.048 455.449 M 471.570 453.887 C 471.269 454.374, 471.652 455.296, 472.422 455.935 C 473.981 457.229, 475.577 455.742, 474.500 454 C 473.735 452.762, 472.300 452.706, 471.570 453.887 M 458.655 463.829 C 456.288 466.444, 456.505 467.098, 461.308 471.811 L 465.615 476.039 467.978 473.523 C 470.682 470.646, 470.189 469.241, 467.143 471.143 C 464.589 472.737, 463.188 471.530, 464.729 469.062 C 465.363 468.047, 465.635 466.969, 465.333 466.667 C 465.031 466.365, 463.953 466.637, 462.938 467.271 C 460.516 468.783, 459.252 467.428, 460.788 464.968 C 462.953 461.500, 461.476 460.711, 458.655 463.829 M 155.518 467.982 C 153.380 470.172, 151.927 472.260, 152.290 472.623 C 152.653 472.986, 153.823 472.207, 154.889 470.892 C 157.375 467.825, 158.324 468.773, 156.889 472.889 C 155.197 477.744, 156.614 477.857, 161.235 473.235 C 165.693 468.778, 165.781 466.029, 161.336 470.079 C 159.179 472.045, 158.805 472.154, 159.344 470.657 C 160.788 466.651, 161.174 464, 160.311 464 C 159.813 464, 157.656 465.792, 155.518 467.982 M 446.745 475.119 C 444.039 477.137, 443.791 479.401, 446.384 478.406 C 447.110 478.127, 449.107 479.497, 450.822 481.450 C 453.641 484.661, 456 485.997, 456 484.382 C 456 484.042, 454.631 482.205, 452.959 480.300 C 450.898 477.954, 450.114 476.217, 450.526 474.918 C 451.302 472.474, 450.213 472.532, 446.745 475.119 M 178.250 487.497 C 174.845 492.126, 174.461 493, 175.830 493 C 176.665 493, 183 484.683, 183 483.587 C 183 482.009, 181.190 483.500, 178.250 487.497 M 434.655 484.829 C 432.656 487.037, 432.522 488.121, 434.334 487.425 C 435.114 487.126, 436.832 488.593, 438.470 490.957 C 441.204 494.902, 443 496.082, 443 493.933 C 443 493.347, 441.825 491.326, 440.389 489.443 C 438.953 487.561, 438.039 485.341, 438.358 484.510 C 439.171 482.390, 436.667 482.605, 434.655 484.829 M 190.388 491.464 C 188.545 492.819, 188.544 492.926, 190.360 496.016 C 191.784 498.439, 191.944 499.452, 191.042 500.340 C 190.148 501.222, 189.555 501.080, 188.572 499.750 C 186.981 497.596, 186 497.509, 186 499.521 C 186 501.842, 190.563 503.607, 192.470 502.025 C 194.464 500.370, 194.410 498.111, 192.324 495.805 C 190.989 494.330, 190.901 493.703, 191.891 492.726 C 192.875 491.756, 193.431 491.902, 194.557 493.427 C 195.989 495.367, 197.767 495.049, 196.544 493.072 C 195.130 490.783, 192.316 490.048, 190.388 491.464 M 421.282 493.772 L 419.064 495.500 422.159 500.500 C 423.861 503.250, 425.361 505.627, 425.492 505.781 C 425.917 506.285, 431.987 502.522, 431.994 501.750 C 432.002 500.709, 430.217 500.813, 428.034 501.982 C 426.664 502.715, 426.052 502.579, 425.617 501.444 C 425.289 500.589, 425.682 499.675, 426.517 499.355 C 428.998 498.403, 428.185 496.737, 425.561 497.395 C 422.403 498.188, 421.327 496.437, 423.961 494.792 C 425.083 494.092, 426 493.177, 426 492.759 C 426 491.454, 423.596 491.970, 421.282 493.772 M 406.250 502.277 C 405.012 502.843, 404 503.702, 404 504.186 C 404 505.780, 409.015 515, 409.882 515 C 411.455 515, 416 510.867, 416 509.436 C 416 508.655, 415.100 507.455, 414 506.768 C 412.900 506.081, 412 504.968, 412 504.295 C 412 502.282, 408.742 501.139, 406.250 502.277 M 215.746 505.146 C 216.607 506.007, 216.408 507.239, 214.946 510.106 C 213.876 512.204, 213 514.415, 213 515.019 C 213 517.148, 215.102 514.784, 216.651 510.915 C 217.568 508.624, 218.898 506.987, 219.859 506.968 C 221.250 506.941, 221.205 506.713, 219.559 505.468 C 217.178 503.668, 213.999 503.399, 215.746 505.146 M 409.446 509.087 C 408.573 510.499, 410.501 512.427, 411.913 511.554 C 412.511 511.184, 413 510.234, 413 509.441 C 413 507.757, 410.426 507.501, 409.446 509.087 M 228.484 513.692 C 226.251 519.037, 225.641 522, 226.775 522 C 227.320 522, 228.012 521.061, 228.312 519.913 C 229.166 516.650, 232.576 517.850, 232.212 521.286 C 231.731 525.825, 233.475 524.326, 235.456 518.497 C 237.342 512.948, 236.950 509.371, 235.014 514.463 C 234.295 516.355, 233.487 517.017, 232.404 516.602 C 231.542 516.271, 230.659 516, 230.443 516 C 230.227 516, 230.320 514.650, 230.650 513 C 231.475 508.875, 230.346 509.235, 228.484 513.692 M 380.684 513.750 C 379.979 514.970, 381.178 526, 382.017 526 C 382.440 526, 383.063 525.277, 383.402 524.394 C 383.841 523.251, 384.736 522.968, 386.509 523.413 C 389.706 524.215, 389.647 523.684, 385.896 517.838 C 382.904 513.175, 381.606 512.157, 380.684 513.750 M 245.379 521.467 C 244.293 524.913, 243.982 527.375, 244.563 527.942 C 246.024 529.371, 251 530.356, 251 529.217 C 251 528.667, 249.843 527.926, 248.429 527.572 C 245.139 526.746, 245.801 524.664, 249.582 523.945 C 252.361 523.416, 252.393 523.354, 250.250 522.628 C 246.763 521.446, 247.430 519.005, 251.250 518.970 C 254.627 518.938, 253.833 517.955, 249.316 516.574 C 247.369 515.980, 246.941 516.512, 245.379 521.467 M 351.200 522.750 C 350.705 523.746, 350.711 526.309, 351.213 528.698 C 352.199 533.380, 354.559 534.842, 358.084 532.955 C 359.969 531.946, 360.166 531.227, 359.630 527.317 C 359.292 524.851, 358.760 522.421, 358.449 521.917 C 357.439 520.283, 352.123 520.894, 351.200 522.750 M 273.451 528.546 C 272.754 534.123, 273.581 537.319, 274.656 533.206 C 275.410 530.322, 276.413 530.415, 277.818 533.500 C 278.445 534.875, 279.428 536, 280.004 536 C 280.619 536, 280.403 534.747, 279.482 532.965 C 278.009 530.116, 278.042 529.750, 280.025 526.965 C 282.495 523.496, 280.743 522.894, 277.944 526.250 L 276.067 528.500 276.033 525.750 C 275.974 520.871, 274.165 522.829, 273.451 528.546 M 337.250 523.706 C 334.699 524.197, 334.293 525.515, 336.440 526.339 C 337.300 526.669, 338.005 528.593, 338.190 531.118 C 338.360 533.443, 339.033 535.520, 339.684 535.734 C 340.545 536.017, 340.712 534.607, 340.294 530.561 C 339.899 526.730, 340.075 525, 340.860 525 C 341.487 525, 342 524.550, 342 524 C 342 522.982, 341.249 522.936, 337.250 523.706 M 353 525.736 C 353 529.506, 355.026 532.262, 356.919 531.068 C 358.017 530.376, 358.122 529.417, 357.384 526.843 C 356.130 522.472, 353 521.681, 353 525.736 M 291.533 530.584 C 291.149 533.655, 291.017 536.351, 291.240 536.574 C 292.300 537.634, 298 538.157, 298 537.195 C 298 536.614, 296.988 535.995, 295.750 535.820 C 292.721 535.389, 292.888 532.763, 296 531.884 L 298.500 531.178 296.250 530.472 C 293.179 529.509, 293.359 527, 296.500 527 C 297.875 527, 299 526.550, 299 526 C 299 525.450, 297.477 525, 295.615 525 C 292.256 525, 292.225 525.043, 291.533 530.584 M 308.531 527 C 308.907 528.375, 309.719 531.413, 310.335 533.750 C 311.716 538.992, 312.630 539.146, 313.314 534.250 C 313.603 532.188, 314.119 529.150, 314.461 527.500 C 315.082 524.510, 315.078 524.508, 313.435 526.728 L 311.785 528.956 309.817 526.728 L 307.848 524.500 308.531 527" stroke="none" fill="#511f26" fill-rule="evenodd"/></svg>