<svg xmlns="http://www.w3.org/2000/svg" width="267" height="203" viewBox="0 0 267 203" version="1.1"><path d="M 109.462 42.239 C 109.191 42.945, 109.089 57.017, 109.235 73.511 L 109.500 103.500 129.750 103.771 L 150 104.041 150 98.551 L 150 93.060 137.250 92.780 L 124.500 92.500 124.500 85 L 124.500 77.500 133.642 77.214 L 142.784 76.928 143.467 72.372 C 143.843 69.867, 143.936 67.603, 143.674 67.341 C 143.413 67.079, 139.353 66.824, 134.653 66.775 C 129.953 66.725, 125.610 66.377, 125.002 66.001 C 124.326 65.583, 124.014 62.828, 124.198 58.909 L 124.500 52.500 136.801 52.219 L 149.102 51.938 148.801 46.719 L 148.500 41.500 129.227 41.228 C 114.270 41.017, 109.844 41.244, 109.462 42.239 M 211.951 53.351 C 202.137 56.022, 195.261 62.878, 192.343 72.902 C 189.792 81.661, 192.229 91.646, 198.625 98.647 C 209.493 110.543, 229.968 109.780, 239.635 97.119 C 243.078 92.611, 246 84.750, 246 80 C 246 75.199, 243.063 67.370, 239.523 62.734 C 233.482 54.822, 221.511 50.748, 211.951 53.351 M 164.129 59.623 C 157.458 62.947, 154.209 67.731, 152.721 76.421 C 150.597 88.817, 154.733 99.158, 163.384 103.087 C 168.196 105.272, 177.714 105.503, 183 103.563 C 186.017 102.456, 186.456 101.888, 186.182 99.446 C 185.561 93.919, 184.515 93.098, 178.753 93.619 C 171.919 94.237, 169.153 92.203, 167.931 85.661 C 166.847 79.860, 168.345 71.218, 170.751 69.392 C 172.968 67.709, 176.456 67.643, 179.008 69.237 C 180.733 70.315, 181.405 70.056, 184.233 67.228 C 188.017 63.444, 187.517 61.606, 181.925 58.752 C 176.923 56.198, 170.356 56.520, 164.129 59.623 M 215 65.768 C 209.582 71.688, 208.750 75.235, 211.873 79.091 C 212.903 80.364, 215.266 81.914, 217.123 82.536 C 220.851 83.786, 222.260 87.302, 219.463 88.376 C 217.449 89.149, 216 88.354, 216 86.476 C 216 84.809, 213.025 83.082, 211.250 83.718 C 210.563 83.965, 210 85.183, 210 86.424 C 210 89.097, 217.503 97.153, 219.284 96.391 C 221.595 95.403, 227 87.776, 227 85.503 C 227 82.303, 223.961 78.911, 219.925 77.607 C 217.240 76.739, 216.500 75.963, 216.500 74.014 C 216.500 70.561, 219.695 70.068, 220.935 73.330 C 221.453 74.692, 222.374 76.113, 222.982 76.489 C 224.430 77.384, 227.011 75.203, 226.959 73.128 C 226.915 71.371, 219.788 62.988, 218.364 63.018 C 217.889 63.028, 216.375 64.266, 215 65.768" stroke="none" fill="#f17c1a" fill-rule="evenodd"/><path d="M 48.828 8.969 C 46.258 9.948, 42.496 11.060, 40.466 11.440 C 35.089 12.449, 31.769 16.151, 32.175 20.685 C 32.535 24.699, 32.960 24.474, 15.500 29.516 C 2.196 33.358, 0.038 35.762, 2.126 44.410 C 2.802 47.209, 3.838 50.035, 4.428 50.690 C 5.690 52.091, 10.876 50.987, 26.500 45.993 C 32 44.235, 37.962 42.392, 39.750 41.898 C 49.949 39.079, 52.598 38.295, 71.500 32.501 C 77.550 30.647, 86.484 27.947, 91.354 26.501 C 101.168 23.587, 100.658 24.407, 98.319 15.319 C 97.336 11.501, 93.619 7, 91.449 7 C 90.130 7, 82.129 9.339, 67.429 14.022 C 63.059 15.414, 62 15.249, 62 13.174 C 62 10.777, 57.893 6.974, 55.436 7.095 C 54.371 7.148, 51.398 7.991, 48.828 8.969 M 46.500 16.030 C 41.178 17.767, 38.392 19.204, 38.177 20.321 C 37.762 22.477, 37.954 22.466, 47.750 19.791 C 53.989 18.088, 56 17.122, 56 15.828 C 56 13.201, 55.103 13.220, 46.500 16.030 M 108.462 41.239 C 108.192 41.943, 108.090 56.465, 108.235 73.510 L 108.500 104.500 129.500 104.500 L 150.500 104.500 150.798 98.250 L 151.095 92 138.048 92 L 125 92 125 85 L 125 78 134.375 78 L 143.750 78 144.375 74.875 C 144.719 73.156, 145 70.456, 145 68.875 C 145 66.372, 144.644 66.018, 142.250 66.136 C 139.723 66.261, 139.692 66.309, 141.867 66.721 C 143.987 67.123, 144.171 67.552, 143.628 70.835 C 143.295 72.851, 143.017 75.046, 143.011 75.712 C 143.003 76.553, 140.165 77.013, 133.750 77.212 L 124.500 77.500 124.500 85 L 124.500 92.500 137.250 92.780 L 150 93.060 150 98.551 L 150 104.041 129.750 103.771 L 109.500 103.500 109.500 72.500 L 109.500 41.500 129 41.500 L 148.500 41.500 148.801 46.719 L 149.102 51.938 136.801 52.219 L 124.500 52.500 124.432 59 L 124.363 65.500 124.727 59.250 L 125.091 53 137.593 53 L 150.095 53 149.798 46.750 L 149.500 40.500 129.227 40.229 C 113.474 40.019, 108.844 40.244, 108.462 41.239 M 211.733 52.068 C 204.806 53.737, 196.430 60.522, 192.683 67.500 C 189.581 73.276, 189.628 85.790, 192.773 91.722 C 198.590 102.692, 206.979 108, 218.500 108 C 230.032 108, 238.494 102.639, 244.191 91.722 C 247.498 85.387, 247.307 74.271, 243.773 67.437 C 240.863 61.807, 234.439 55.483, 229.640 53.524 C 225.238 51.726, 216.203 50.992, 211.733 52.068 M 211.951 53.351 C 202.137 56.022, 195.261 62.878, 192.343 72.902 C 189.792 81.661, 192.229 91.646, 198.625 98.647 C 209.493 110.543, 229.968 109.780, 239.635 97.119 C 243.078 92.611, 246 84.750, 246 80 C 246 75.199, 243.063 67.370, 239.523 62.734 C 233.482 54.822, 221.511 50.748, 211.951 53.351 M 8.478 56.036 C 8.119 56.617, 8.099 59.209, 8.433 61.796 C 8.996 66.149, 10.580 84.305, 13.075 115 C 16.543 157.675, 16.932 160.749, 18.935 161.273 C 21.596 161.969, 42.691 159.166, 52 156.880 C 64.255 153.870, 70 149.836, 70 144.238 C 70 141.035, 66.494 134.460, 63.763 132.543 C 61.753 131.131, 61.509 130.145, 61.576 123.727 C 61.668 115.070, 63.911 109.991, 70.960 102.485 L 75.669 97.470 76.310 84.059 C 76.879 72.157, 77.864 67.530, 79.482 69.149 C 79.766 69.432, 79.654 75.381, 79.235 82.368 C 78.815 89.366, 78.861 95.461, 79.337 95.937 C 79.824 96.424, 81.577 96.408, 83.345 95.901 C 85.073 95.406, 88.122 95, 90.121 95 C 92.120 95, 94.201 94.438, 94.745 93.750 C 95.998 92.170, 97.284 78.508, 97.406 65.500 L 97.500 55.500 53.315 55.240 C 23.095 55.062, 8.924 55.313, 8.478 56.036 M 163.842 58.021 C 155.160 62.608, 150.450 72.535, 151.226 84.618 C 152.127 98.662, 159.664 106, 173.189 106 C 179.743 106, 186.066 104.320, 187.354 102.237 C 187.682 101.705, 187.376 99.297, 186.672 96.885 L 185.393 92.500 179.074 92.500 C 173.365 92.500, 172.556 92.237, 170.703 89.779 C 168.109 86.337, 167.955 75.243, 170.449 71.437 C 172.105 68.910, 177.258 67.990, 178.500 70 C 179.725 71.982, 182.554 70.932, 185.317 67.469 C 188.872 63.013, 188.497 61.129, 183.492 58.294 C 178.300 55.353, 169.133 55.226, 163.842 58.021 M 164.129 59.623 C 157.458 62.947, 154.209 67.731, 152.721 76.421 C 150.597 88.817, 154.733 99.158, 163.384 103.087 C 168.196 105.272, 177.714 105.503, 183 103.563 C 186.017 102.456, 186.456 101.888, 186.182 99.446 C 185.561 93.919, 184.515 93.098, 178.753 93.619 C 171.919 94.237, 169.153 92.203, 167.931 85.661 C 166.847 79.860, 168.345 71.218, 170.751 69.392 C 172.968 67.709, 176.456 67.643, 179.008 69.237 C 180.733 70.315, 181.405 70.056, 184.233 67.228 C 188.017 63.444, 187.517 61.606, 181.925 58.752 C 176.923 56.198, 170.356 56.520, 164.129 59.623 M 215 65.768 C 209.582 71.688, 208.750 75.235, 211.873 79.091 C 212.903 80.364, 215.266 81.916, 217.123 82.541 C 220.705 83.746, 222.093 86.631, 219.848 88.206 C 218.764 88.967, 218.794 89.072, 220 88.743 C 220.883 88.502, 221.500 87.171, 221.500 85.506 C 221.500 83.174, 220.896 82.475, 218.055 81.519 C 216.161 80.881, 213.732 79.182, 212.657 77.743 C 210.993 75.514, 210.879 74.707, 211.884 72.281 C 212.985 69.622, 218.771 63.296, 219.342 64.125 C 219.484 64.331, 220.815 65.997, 222.300 67.827 C 225.044 71.208, 225.893 75, 223.906 75 C 223.305 75, 222.577 74.100, 222.290 73 C 222.002 71.900, 221.411 71, 220.977 71 C 219.801 71, 221.006 74.760, 222.608 76.090 C 224.309 77.501, 227.023 75.654, 226.959 73.128 C 226.915 71.371, 219.788 62.988, 218.364 63.018 C 217.889 63.028, 216.375 64.266, 215 65.768 M 132.264 66.718 C 133.784 66.947, 136.034 66.941, 137.264 66.704 C 138.494 66.467, 137.250 66.279, 134.500 66.286 C 131.750 66.294, 130.744 66.488, 132.264 66.718 M 27.502 69.997 C 26.898 70.974, 28.092 87.091, 30.021 104 C 30.554 108.675, 31.283 118.879, 31.640 126.676 C 32.313 141.338, 32.988 144.412, 35.074 142.326 C 36.235 141.165, 36.145 139.644, 32.981 107 C 32.475 101.775, 31.797 92.100, 31.474 85.500 C 31.152 78.900, 30.680 72.487, 30.425 71.250 C 29.940 68.894, 28.551 68.299, 27.502 69.997 M 52.667 69.667 C 52.300 70.033, 52 86.683, 52 106.667 C 52 138.296, 52.194 143, 53.500 143 C 54.806 143, 55 138.222, 55 106 C 55 85.650, 54.625 69, 54.167 69 C 53.708 69, 53.033 69.300, 52.667 69.667 M 214.930 72.584 C 213.326 74.517, 214.758 77.328, 217.607 77.840 C 219.455 78.172, 219.455 78.145, 217.594 76.739 C 216.331 75.785, 215.878 74.575, 216.251 73.150 C 216.921 70.585, 216.677 70.480, 214.930 72.584 M 221.771 78.669 C 223.885 79.520, 226.163 84.907, 225.420 87.300 C 225.045 88.510, 223.349 90.932, 221.653 92.683 L 218.568 95.865 214.784 91.766 C 211.049 87.721, 209.966 85, 212.090 85 C 212.689 85, 214.040 86.013, 215.092 87.250 C 216.827 89.292, 216.945 89.315, 216.362 87.500 C 214.889 82.910, 210 82.101, 210 86.448 C 210 89.098, 217.515 97.148, 219.284 96.391 C 221.583 95.408, 227 87.782, 227 85.527 C 227 82.946, 223.438 77.961, 221.677 78.079 C 220.872 78.133, 220.901 78.319, 221.771 78.669 M 81.870 105.903 C 74.328 108.368, 69 115.650, 69 123.492 C 69 132.467, 72.862 137.403, 84.399 143.173 C 87.755 144.851, 91.287 146.919, 92.250 147.767 C 94.253 149.533, 94.587 155.013, 92.800 156.800 C 90.711 158.889, 84.475 158.143, 78.722 155.117 C 75.707 153.531, 72.765 152.527, 72.183 152.887 C 71.602 153.246, 70.179 155.750, 69.021 158.450 C 67 163.165, 66.988 163.428, 68.708 165.038 C 74.027 170.017, 90.079 172.463, 98.682 169.606 C 109.566 165.990, 115.876 152.818, 111.611 142.611 C 109.602 137.804, 105.481 134.309, 97.315 130.489 C 89.671 126.913, 86.406 123.446, 87.484 120.049 C 88.365 117.276, 95.608 117.249, 101 120 C 103.156 121.100, 105.381 122, 105.943 122 C 106.945 122, 112 112.950, 112 111.156 C 112 110.656, 109.638 109.229, 106.750 107.985 C 101.033 105.523, 86.702 104.324, 81.870 105.903 M 215.598 112.346 C 210.475 113.552, 209.206 115.063, 209.070 120.118 C 209.008 122.422, 208.496 122.804, 204.805 123.299 C 202.498 123.609, 199.828 123.443, 198.871 122.931 C 194.681 120.689, 185.058 123.155, 183.001 126.998 C 181.562 129.688, 180.347 129.520, 179.597 126.529 C 178.680 122.877, 176.232 122.110, 170.690 123.738 C 164.977 125.415, 164.049 127.135, 166.580 131.361 C 168.191 134.052, 168.513 137.108, 168.839 152.750 L 169.219 171 176.998 171 L 184.778 171 185.152 156.523 C 185.578 140.038, 186.016 139.034, 193.201 138.072 C 196.448 137.637, 197.555 137.020, 197.813 135.500 C 197.999 134.400, 198.664 131.700, 199.290 129.500 L 200.428 125.500 200.964 130.500 C 201.474 135.260, 201.660 135.524, 204.826 136 L 208.153 136.500 208.326 150 C 208.524 165.365, 209.506 168.022, 215.746 170.081 C 219.828 171.428, 234.634 170.766, 236.236 169.164 C 236.886 168.514, 236.929 166.438, 236.358 163.328 C 235.474 158.510, 235.464 158.500, 231.386 158.415 C 223.980 158.260, 224 158.292, 224 146.531 L 224 136 227.878 136 C 232.733 136, 233.916 134.588, 234.242 128.408 L 234.500 123.500 229.500 123.500 L 224.500 123.500 224.202 117.250 C 223.869 110.248, 224.056 110.355, 215.598 112.346 M 131.259 123.607 C 118.940 128.121, 113.500 147.487, 120.574 161.644 C 122.992 166.483, 124.323 167.908, 128.237 169.850 C 136.331 173.865, 148.104 172.531, 155.104 166.805 C 158.576 163.965, 161.323 156.633, 161.776 149 C 162.509 136.623, 159.107 128.536, 151.520 124.620 C 146.423 121.988, 136.966 121.516, 131.259 123.607 M 135.975 137.565 C 134.587 141.216, 134.795 154.034, 136.290 157 C 137.973 160.339, 141.370 160.738, 143.403 157.834 C 145.544 154.779, 145.589 142.040, 143.474 137.950 C 141.464 134.063, 137.386 133.854, 135.975 137.565" stroke="none" fill="#146219" fill-rule="evenodd"/></svg>